<?xml version="1.0" standalone="no"?>
<!DOCTYPE svg PUBLIC "-//W3C//DTD SVG 20010904//EN"
 "http://www.w3.org/TR/2001/REC-SVG-20010904/DTD/svg10.dtd">
<svg version="1.0" xmlns="http://www.w3.org/2000/svg"
 width="1024.000000pt" height="1024.000000pt" viewBox="0 0 1024.000000 1024.000000"
 preserveAspectRatio="xMidYMid meet">

<g transform="translate(0.000000,1024.000000) scale(0.100000,-0.100000)"
fill="#000000" stroke="none">
<path d="M7525 9680 c-221 -17 -459 -88 -718 -213 -198 -96 -283 -150 -446
-287 -128 -107 -186 -167 -296 -305 -148 -185 -244 -348 -369 -625 -48 -107
-92 -199 -98 -205 -12 -13 -240 -26 -252 -14 -29 27 61 310 140 437 59 94 90
129 299 343 197 202 227 248 233 360 5 84 -9 126 -56 174 -97 97 -220 117
-448 71 -347 -69 -712 -284 -967 -571 -94 -106 -244 -320 -294 -420 -91 -181
-189 -480 -212 -650 -12 -80 -23 -94 -104 -121 -28 -9 -73 -27 -99 -40 -47
-24 -47 -24 -58 -4 -18 34 -32 189 -25 280 13 169 59 337 165 590 89 216 98
278 51 375 -52 109 -119 151 -236 148 -199 -4 -503 -194 -697 -434 -148 -184
-214 -297 -298 -503 -102 -253 -139 -456 -140 -756 0 -177 13 -288 55 -470
l26 -112 -49 -52 c-26 -28 -94 -119 -149 -202 -56 -83 -108 -154 -116 -157
-24 -9 -52 31 -87 123 -58 152 -62 185 -69 565 -6 335 -8 352 -29 400 -67 147
-204 196 -349 125 -286 -141 -534 -655 -550 -1142 -14 -391 107 -761 382
-1173 109 -162 177 -287 199 -365 22 -73 12 -204 -16 -224 -41 -29 -109 14
-204 126 -90 108 -124 160 -191 292 -35 68 -74 127 -100 154 -109 108 -260
123 -361 36 -89 -76 -117 -176 -109 -394 9 -240 50 -396 172 -645 159 -327
440 -627 784 -839 46 -28 90 -61 98 -73 14 -21 13 -21 -55 -33 -135 -22 -238
-92 -261 -177 -31 -111 -3 -253 83 -428 140 -281 330 -476 661 -678 108 -65
222 -118 410 -187 169 -62 306 -91 473 -97 l133 -6 44 -36 c24 -20 83 -58 130
-86 48 -27 140 -85 206 -127 227 -148 403 -217 649 -258 117 -19 499 -31 627
-20 139 12 444 69 558 104 44 14 118 37 165 51 47 15 107 40 135 57 70 43 112
46 183 15 87 -39 175 -50 341 -44 209 8 349 50 541 161 119 69 258 210 282
285 9 30 15 57 13 61 -2 3 42 11 98 18 651 73 1265 482 1513 1007 54 113 84
222 84 300 0 105 -74 205 -180 245 -59 22 -100 21 -165 -3 -42 -15 -169 -100
-235 -157 -64 -55 -147 -114 -172 -123 -26 -9 -23 19 5 47 12 13 51 47 87 76
214 175 294 256 477 490 86 110 263 417 263 458 0 7 11 34 24 60 55 110 104
333 113 517 8 173 -6 253 -63 363 l-43 85 25 19 c35 28 137 164 191 256 128
215 204 444 234 702 36 316 -64 722 -232 945 -73 97 -139 135 -234 135 -76 0
-127 -18 -172 -62 -24 -23 -33 -27 -33 -16 0 21 28 74 37 70 17 -8 136 356
168 515 14 67 30 170 36 230 14 132 6 406 -15 523 -19 102 -91 326 -139 430
-50 109 -171 286 -221 322 -116 86 -222 91 -304 14 -43 -40 -57 -67 -71 -141
-24 -121 -14 -116 -84 -48 -84 81 -101 87 -244 79 l-118 -7 30 26 c17 14 49
41 72 61 76 63 86 159 29 273 -30 58 -77 97 -138 116 -58 17 -231 25 -353 15z
m-315 -84 c0 -7 -132 -47 -137 -42 -3 2 24 14 59 25 67 21 78 24 78 17z m614
-54 c41 -24 58 -58 52 -107 -5 -39 -34 -75 -60 -75 -6 0 -1 8 11 18 24 19 46
69 39 88 -3 9 -21 4 -63 -17 -32 -16 -112 -50 -178 -75 -66 -25 -131 -54 -145
-64 -14 -10 -58 -34 -98 -54 -143 -72 -334 -211 -439 -320 -98 -101 -208 -237
-238 -295 -8 -17 -21 -31 -27 -31 -6 0 -9 -3 -5 -6 3 -3 -2 -15 -12 -25 -22
-24 -134 -251 -151 -307 -13 -40 -58 -92 -81 -92 -5 0 2 20 16 43 14 24 25 47
25 52 0 12 -30 -16 -30 -29 -1 -18 -77 -96 -94 -96 -9 0 -16 -4 -16 -10 0 -5
-7 -10 -15 -10 -8 0 -15 -4 -15 -10 0 -5 -8 -10 -18 -10 -10 0 -26 -6 -37 -14
-11 -7 -52 -19 -91 -25 -44 -8 -80 -20 -92 -32 -12 -10 -34 -19 -49 -19 -16 0
-39 -7 -51 -16 -12 -8 -25 -13 -30 -10 -4 2 -16 -3 -27 -11 -19 -14 -18 -15
15 -8 203 38 434 130 469 186 10 16 15 19 21 9 17 -27 198 90 399 259 53 45
134 111 181 148 47 37 120 95 163 129 104 84 292 198 457 278 151 73 315 124
430 133 108 8 108 7 110 -182 1 -231 -11 -294 -97 -485 -13 -30 -38 -86 -56
-125 -58 -130 -175 -285 -216 -285 -24 -1 -25 -2 -8 -14 22 -17 15 -39 -50
-137 -152 -229 -192 -482 -127 -799 18 -86 29 -108 19 -35 -4 28 -5 48 -2 45
11 -10 68 -262 63 -275 -3 -8 -1 -15 4 -17 13 -4 43 -126 36 -144 -7 -20 24
-145 34 -139 5 3 6 -3 3 -14 -2 -10 8 -72 23 -137 25 -108 28 -141 32 -359 4
-249 -7 -440 -34 -555 -9 -36 -22 -106 -29 -156 -8 -50 -21 -107 -29 -125 -7
-19 -24 -72 -36 -119 -13 -47 -38 -124 -56 -172 -19 -48 -44 -118 -56 -155
-11 -38 -26 -72 -31 -78 -10 -10 -8 -2 10 42 4 10 2 14 -4 10 -5 -3 -23 -37
-38 -74 -16 -37 -33 -70 -37 -71 -5 -2 -18 -23 -30 -45 -24 -48 -118 -187
-176 -262 -21 -27 -70 -93 -109 -145 -40 -52 -81 -105 -92 -117 -28 -30 -26
-37 4 -17 47 31 25 -4 -52 -83 -77 -78 -261 -238 -410 -358 -383 -306 -743
-500 -1233 -666 -395 -134 -651 -175 -1070 -172 -309 1 -533 30 -759 97 -111
32 -135 51 -141 107 -7 63 0 159 12 159 7 0 9 -19 6 -50 -5 -47 -3 -52 21 -64
46 -24 213 -75 341 -105 201 -48 281 -54 610 -47 308 6 405 14 524 42 149 35
474 126 536 150 137 55 192 74 211 74 10 0 74 30 141 66 67 36 147 76 177 88
31 12 87 41 125 64 37 23 70 42 71 42 7 0 219 149 289 202 197 151 489 421
574 533 26 33 55 69 65 80 10 11 39 53 65 93 26 40 68 102 95 137 84 115 215
361 281 534 74 191 109 314 150 522 43 221 49 291 43 529 -4 185 -9 251 -31
370 -23 125 -84 368 -132 520 -26 86 -65 266 -74 345 -12 101 1 220 41 378 34
137 53 179 143 320 86 135 86 142 -1 134 -89 -9 -175 -51 -242 -120 -30 -31
-95 -125 -154 -223 -57 -93 -120 -196 -142 -229 -70 -105 -211 -246 -330 -329
-17 -12 -18 -17 -6 -42 7 -16 55 -88 108 -162 103 -144 212 -344 269 -493 44
-117 97 -316 90 -343 -2 -12 1 -59 8 -106 7 -47 11 -91 8 -97 -2 -7 1 -13 7
-13 16 0 14 -144 -4 -315 -14 -133 -57 -328 -89 -398 -8 -18 -26 -61 -41 -97
-15 -36 -50 -110 -77 -165 -49 -99 -59 -117 -88 -165 -8 -14 -17 -33 -20 -43
-3 -10 -9 -19 -15 -20 -5 -1 -20 -24 -34 -52 -27 -56 -279 -315 -306 -315 -9
0 -14 4 -10 9 3 5 -44 -39 -105 -98 -60 -59 -110 -113 -110 -120 0 -7 -4 -9
-10 -6 -6 3 -10 -4 -11 -17 0 -13 -3 -17 -6 -10 -2 6 -9 12 -14 12 -6 0 -7 -4
-4 -10 3 -5 2 -10 -3 -10 -4 0 -18 -9 -30 -20 -12 -12 -22 -18 -22 -15 0 3 -6
1 -12 -5 -58 -50 -257 -183 -363 -243 -280 -159 -436 -234 -609 -291 -92 -31
-175 -56 -184 -56 -15 0 -15 -2 -2 -11 12 -8 12 -10 -5 -8 -45 3 -66 -1 -59
-13 5 -8 2 -9 -11 -4 -10 3 -43 -1 -74 -10 -31 -10 -65 -18 -76 -18 -11 -1
-19 -7 -18 -13 4 -16 -14 -17 -19 -2 -2 7 -19 7 -53 1 -47 -9 -48 -10 -15 -12
30 -2 27 -4 -20 -11 -30 -4 -62 -6 -70 -4 -9 3 -79 -4 -155 -15 -77 -11 -158
-20 -180 -21 l-40 -2 40 -6 40 -7 -60 -9 c-33 -5 -75 -8 -92 -6 -22 2 -33 -2
-33 -10 0 -10 -3 -10 -11 -2 -7 7 -30 10 -58 6 -25 -3 -88 0 -139 6 -69 9
-104 9 -135 0 -30 -8 -42 -8 -45 0 -2 6 -15 11 -29 11 -13 0 -31 7 -39 15 -9
8 -21 15 -27 15 -7 0 -6 -4 3 -10 11 -8 7 -9 -15 -4 -16 4 -34 10 -39 15 -5 4
-14 6 -20 5 -6 -2 -8 -1 -3 1 11 7 8 19 -5 21 -74 10 -90 16 -100 37 -10 23
-16 25 -90 26 -27 0 -60 7 -75 15 -16 7 -40 14 -55 14 -15 0 -49 10 -75 21
-27 12 -57 26 -69 31 -11 5 -26 25 -33 45 -7 19 -15 32 -18 30 -7 -8 -64 14
-58 23 2 4 -7 12 -21 19 -102 46 -300 294 -393 493 -110 233 -147 394 -167
723 -10 167 23 414 83 625 74 259 196 516 362 762 256 378 682 739 1150 973
291 146 523 228 819 289 248 52 326 61 552 60 213 0 336 -13 502 -55 42 -10
81 -19 87 -19 6 0 28 26 48 58 72 114 173 239 265 327 115 111 338 301 437
373 41 29 90 67 109 84 l35 30 -24 19 c-14 10 -33 16 -45 13 -12 -3 -36 2 -53
10 -37 20 -40 19 -153 -67 -137 -103 -267 -185 -393 -247 -213 -104 -344 -137
-676 -170 -450 -44 -632 -73 -939 -149 -184 -46 -222 -59 -214 -72 3 -5 -1
-10 -8 -10 -7 -1 -22 -3 -33 -4 -51 -5 -175 -49 -163 -56 7 -5 10 -9 6 -9 -3
0 -14 -3 -24 -7 -11 -4 -15 -3 -11 4 5 7 0 9 -14 6 -16 -5 -18 -8 -7 -15 10
-7 8 -8 -5 -4 -39 13 -300 -106 -497 -226 -291 -178 -374 -234 -522 -354 -140
-113 -359 -334 -427 -432 -33 -48 -87 -123 -119 -167 -123 -168 -263 -426
-322 -595 -13 -36 -31 -85 -42 -109 -26 -61 -95 -317 -114 -420 -23 -129 -44
-335 -44 -436 0 -260 77 -617 180 -825 113 -232 220 -399 307 -481 l55 -52
-23 -18 c-52 -40 -58 -38 -149 58 -150 159 -208 252 -328 523 -56 128 -90 239
-129 430 -24 115 -23 528 1 670 51 297 176 700 264 850 14 25 42 77 62 115 80
155 255 412 389 570 50 59 50 61 45 115 -3 30 -12 78 -20 105 -42 150 -63 444
-45 635 44 458 201 801 511 1118 228 233 559 353 575 207 2 -15 -3 -34 -11
-42 -8 -8 -27 -31 -42 -51 -15 -21 -30 -39 -33 -42 -10 -7 -113 -195 -183
-330 -32 -63 -71 -137 -87 -164 -29 -46 -36 -71 -58 -183 -6 -29 -19 -71 -30
-95 -11 -24 -25 -70 -32 -103 -7 -33 -16 -64 -19 -70 -4 -5 -11 -24 -15 -42
-3 -18 -15 -49 -25 -70 -10 -21 -21 -58 -25 -83 -4 -25 -10 -47 -14 -50 -3 -3
-21 -34 -38 -70 -18 -36 -51 -90 -74 -120 -94 -128 -182 -275 -259 -434 -55
-115 -66 -146 -51 -146 6 0 11 4 11 9 0 14 151 162 273 267 125 107 296 232
450 328 93 57 414 221 557 283 44 19 45 20 47 71 11 274 189 719 384 960 287
357 601 573 955 658 186 45 290 35 343 -32 40 -50 18 -107 -73 -193 -61 -58
-51 -27 12 38 61 62 79 99 64 127 -7 12 -19 5 -63 -38 -67 -67 -192 -168 -207
-168 -17 0 -392 -375 -392 -392 0 -8 -13 -32 -30 -53 -16 -21 -30 -32 -30 -25
0 20 -60 -41 -66 -67 -4 -13 -10 -23 -14 -23 -12 0 -19 -39 -9 -46 5 -3 -1
-24 -13 -47 -11 -23 -23 -36 -26 -29 -3 10 -8 8 -18 -5 -11 -14 -13 -15 -14
-3 -1 19 -37 -79 -54 -144 -20 -80 -62 -117 -229 -204 -152 -79 -340 -210
-373 -260 -10 -14 -27 -34 -38 -44 -12 -10 -19 -17 -15 -18 3 0 52 16 110 36
108 37 391 108 564 143 142 28 227 38 510 61 138 11 255 22 262 25 7 2 17 23
23 47 72 277 344 737 572 968 222 226 511 414 789 515 107 38 300 84 397 95
133 13 307 5 346 -18z m-1044 -123 c-85 -45 -188 -103 -228 -129 -89 -60 -86
-48 4 16 62 44 347 194 369 194 6 0 -60 -37 -145 -81z m-1365 -54 c-97 -24
-131 -26 -44 -1 71 20 90 24 114 24 11 0 -20 -10 -70 -23z m-156 -49 c-2 -2
-53 -29 -113 -60 -60 -31 -154 -87 -209 -124 -54 -37 -117 -79 -140 -94 -22
-15 -50 -35 -62 -45 -12 -10 -2 0 21 23 65 63 216 162 359 236 111 57 162 80
144 64z m3347 -114 c46 -34 63 -53 69 -78 17 -75 25 -98 33 -106 6 -6 8 -16 6
-22 -3 -7 1 -26 7 -42 48 -117 65 -337 39 -500 -6 -38 -13 -85 -16 -104 -8
-58 -56 -220 -85 -285 -64 -144 -87 -188 -135 -258 -61 -87 -131 -159 -204
-209 -33 -23 -59 -32 -105 -35 -33 -3 -68 -12 -77 -20 -9 -8 -22 -12 -27 -8
-6 3 -11 1 -11 -4 0 -6 -3 -10 -7 -9 -5 2 -24 -9 -43 -23 -19 -15 -48 -31 -65
-37 -16 -5 -38 -13 -47 -17 -26 -10 -23 14 8 69 14 25 23 46 20 46 -15 0 38
81 94 145 183 208 314 479 360 741 17 100 20 161 20 418 0 326 -1 322 55 351
43 22 67 19 111 -13z m-2251 -67 c-38 -36 -79 -70 -90 -76 l-20 -11 20 20 c26
27 148 131 155 131 3 0 -26 -29 -65 -64z m-2650 -165 c-16 -4 -52 -13 -80 -19
-70 -16 -179 -70 -250 -124 -145 -109 -172 -131 -208 -166 -37 -34 -162 -179
-200 -231 -18 -25 -18 -25 -1 5 67 115 217 273 354 371 139 100 301 174 380
172 l35 0 -30 -8z m5118 -115 c91 -233 123 -420 114 -674 -8 -214 -37 -375
-107 -591 -36 -110 -136 -316 -201 -413 -85 -126 -272 -346 -418 -492 -143
-141 -176 -169 -132 -106 28 39 61 131 61 169 0 18 11 50 25 72 14 22 25 44
25 49 0 5 6 14 14 21 8 6 43 53 77 103 35 51 66 94 69 97 4 3 35 43 69 90 34
47 80 110 104 142 168 225 282 515 319 813 12 94 13 97 20 55 6 -42 6 -41 4
12 -2 33 2 59 8 61 23 8 -34 510 -64 565 -5 9 -17 42 -26 72 -9 30 -19 62 -22
70 -15 48 31 -39 61 -115z m-4198 23 c-39 -40 -72 -75 -74 -78 -2 -3 -2 0 0 7
6 18 122 143 133 143 6 0 -21 -33 -59 -72z m3572 -100 c-3 -8 -6 -5 -6 6 -1
11 2 17 5 13 3 -3 4 -12 1 -19z m-4402 -114 c-28 -57 -45 -69 -24 -18 6 16 11
41 10 56 -1 16 6 31 16 37 29 16 28 -14 -2 -75z m4385 -131 c-9 -15 -10 -12
-6 16 3 18 7 48 8 65 1 19 3 13 5 -16 2 -26 -1 -56 -7 -65z m857 15 c-3 -7 -5
-2 -5 12 0 14 2 19 5 13 2 -7 2 -19 0 -25z m10 -70 c-3 -8 -6 -5 -6 6 -1 11 2
17 5 13 3 -3 4 -12 1 -19z m-926 -155 c-5 -16 -19 -46 -31 -68 -57 -99 -242
-393 -264 -420 l-25 -30 8 35 c10 41 30 89 47 110 7 8 24 38 40 65 15 28 50
86 78 130 75 118 75 118 88 145 13 27 46 60 59 60 4 0 4 -12 0 -27z m-2944
-95 c-3 -8 -6 -5 -6 6 -1 11 2 17 5 13 3 -3 4 -12 1 -19z m-23 -112 c-3 -21
-8 -35 -11 -32 -2 2 -1 20 3 40 3 21 8 35 11 32 2 -2 1 -20 -3 -40z m-839
-546 c-3 -5 -14 -10 -23 -9 -14 0 -13 2 3 9 27 11 27 11 20 0z m3329 -80 c-9
-61 -23 -86 -24 -40 0 19 3 52 7 73 9 55 25 24 17 -33z m-5734 34 c-80 -26
-189 -103 -247 -173 -72 -87 -80 -86 -14 2 61 82 200 178 256 176 14 0 15 -2
5 -5z m104 -127 c27 -32 15 -109 -40 -244 -63 -156 -75 -224 -79 -453 -2 -107
0 -177 3 -155 6 33 9 21 15 -65 9 -131 40 -252 101 -396 44 -105 47 -116 42
-180 -2 -38 -5 -79 -5 -91 -1 -16 -6 -20 -21 -16 -11 3 -40 -4 -65 -16 -56
-26 -195 -31 -195 -6 0 14 54 34 100 36 14 0 -2 7 -35 14 -33 7 -63 11 -67 9
-3 -2 -9 -22 -13 -43 -7 -42 -27 -67 -45 -56 -5 3 -16 0 -23 -7 -17 -16 -31
-68 -19 -68 5 0 9 -15 10 -32 1 -37 51 -147 75 -167 9 -7 20 -10 25 -7 23 14
31 -144 8 -163 -11 -10 -19 -5 -39 21 -86 114 -206 353 -262 521 -106 316
-108 692 -6 997 115 344 333 616 476 595 24 -3 48 -14 59 -28z m12 -205 c-12
-11 -18 7 -10 30 l8 23 4 -23 c2 -13 1 -26 -2 -30z m6789 -48 c-8 -27 -22 -96
-30 -154 -55 -373 -119 -563 -247 -733 -48 -65 -137 -133 -161 -124 -16 6 -68
112 -114 230 l-34 88 50 57 c27 31 61 68 76 82 43 39 332 384 381 455 12 17
36 58 54 93 18 35 34 61 36 59 2 -2 -3 -26 -11 -53z m304 -26 c78 -48 179
-266 227 -488 25 -119 30 -366 9 -491 -47 -281 -157 -530 -335 -754 -75 -94
-75 -95 -120 -95 -25 0 -72 -7 -103 -15 -32 -8 -60 -15 -62 -15 -11 0 67 120
115 178 31 37 71 93 90 125 19 32 43 67 53 77 9 11 17 22 17 26 0 4 6 15 14
23 29 33 168 327 195 413 32 103 41 186 41 408 0 168 -4 226 -21 320 -12 63
-26 127 -32 141 l-11 27 -18 -23 c-15 -19 -18 -43 -18 -142 0 -139 -32 -337
-67 -423 -3 -8 -7 -17 -7 -20 -1 -3 -14 -32 -30 -65 -29 -58 -144 -184 -169
-186 -7 0 -34 -27 -62 -60 -81 -98 -109 -127 -145 -154 -68 -50 -79 -23 -24
58 20 28 45 61 55 72 16 19 69 116 69 129 0 3 -6 3 -14 0 -9 -3 -22 6 -33 23
-9 15 -22 31 -27 34 -4 4 16 62 46 130 60 135 108 286 133 419 9 47 23 121 31
165 22 112 46 162 86 180 38 17 69 12 117 -17z m-5899 -315 c16 -21 20 -38 18
-79 -2 -29 -5 -50 -7 -48 -7 7 -41 -28 -36 -37 3 -4 0 -11 -6 -15 -8 -5 -9 -3
-4 6 6 10 2 11 -20 6 -60 -15 -105 28 -105 100 0 82 111 128 160 67z m4274 -4
c34 -27 37 -93 5 -133 -45 -57 -143 -21 -156 56 -5 32 -1 41 25 68 37 37 86
40 126 9z m564 -355 c124 -270 200 -509 237 -749 45 -291 54 -482 36 -766 l-7
-117 -44 -58 c-25 -33 -57 -77 -71 -99 -14 -22 -33 -46 -42 -53 -14 -12 -17
-9 -23 24 -4 20 -2 59 5 86 6 27 11 91 11 141 0 51 5 157 10 236 8 135 -1 563
-15 636 -17 94 -29 150 -50 240 -13 55 -35 156 -49 225 -14 69 -37 177 -51
240 -14 63 -28 131 -32 150 -5 33 -4 34 10 14 9 -11 42 -78 75 -150z m-5338
-124 c12 20 40 3 40 -24 0 -16 -7 -27 -21 -31 -26 -9 -26 -8 -33 40 -3 22 -3
31 0 21 5 -14 8 -16 14 -6z m6777 -37 c-3 -10 -5 -2 -5 17 0 19 2 27 5 18 2
-10 2 -26 0 -35z m-2122 -258 c26 -121 16 -397 -20 -578 -14 -71 -27 -132 -30
-137 -2 -4 -18 -61 -35 -126 -48 -184 -146 -419 -225 -539 -18 -27 -52 -84
-77 -125 -50 -86 -242 -324 -338 -420 -87 -87 -288 -262 -342 -298 -23 -16
-72 -46 -108 -67 -35 -22 -96 -63 -135 -92 -38 -29 -99 -68 -135 -86 -36 -19
-83 -43 -105 -55 -114 -61 -427 -202 -449 -202 -7 0 -39 -11 -72 -24 -74 -30
-445 -123 -544 -136 -41 -5 -120 -14 -175 -20 -55 -6 -107 -13 -115 -15 -43
-13 -381 -6 -465 10 -49 9 -121 20 -160 26 -108 16 -269 57 -330 85 -30 14
-55 27 -55 28 0 2 55 -12 123 -31 329 -90 549 -114 851 -94 265 18 367 34 602
95 300 77 389 110 657 240 264 129 329 167 550 323 242 169 441 359 605 575
169 223 280 416 367 638 43 111 109 356 131 485 18 111 22 535 5 578 -13 34
-14 60 -2 53 4 -3 16 -44 26 -91z m-6178 -879 c46 -39 90 -138 132 -302 48
-185 72 -243 157 -392 56 -98 152 -243 174 -262 3 -3 18 -21 33 -41 28 -37 33
-75 21 -138 l-7 -31 -32 24 c-19 15 -36 21 -41 16 -5 -5 -29 4 -59 22 -60 37
-93 48 -167 57 -37 4 -55 3 -51 -4 4 -5 39 -59 79 -120 102 -153 240 -307 367
-409 59 -48 107 -89 107 -92 0 -10 -113 57 -195 117 -185 133 -305 260 -440
464 -130 194 -199 357 -252 590 -26 115 -26 370 1 438 31 83 114 113 173 63z
m7752 -21 c52 -26 75 -119 75 -305 1 -163 -13 -245 -71 -424 -65 -203 -166
-396 -301 -576 -103 -137 -309 -347 -407 -415 -38 -26 -95 -67 -126 -91 -30
-23 -81 -58 -113 -77 -54 -33 -62 -42 -97 -117 -72 -152 -232 -360 -423 -549
-84 -84 -102 -90 -93 -36 8 54 109 276 143 316 8 8 14 21 14 27 0 7 4 12 9 12
5 0 17 17 28 38 49 97 64 112 153 147 36 15 76 35 90 45 20 16 13 15 -38 -6
-35 -14 -66 -24 -68 -21 -3 2 10 10 28 17 41 17 148 88 148 99 0 4 11 13 25
19 30 14 48 28 78 61 12 13 36 30 52 37 30 13 29 13 -26 14 -42 0 -61 5 -78
22 -23 21 -23 22 -5 36 11 8 34 21 53 29 71 30 150 94 296 239 189 187 217
220 355 429 125 188 214 361 259 505 27 87 35 130 45 245 2 22 6 47 9 55 3 8
7 43 9 76 4 58 3 61 -16 54 -22 -8 -55 -61 -117 -190 -66 -138 -74 -152 -128
-225 -106 -143 -289 -334 -351 -367 -25 -13 -60 -38 -78 -55 -19 -17 -46 -37
-60 -44 -15 -8 -29 -16 -32 -19 -15 -15 -71 -50 -80 -50 -5 0 -10 -4 -10 -8 0
-10 -85 -51 -118 -57 -31 -6 -143 -63 -168 -86 -11 -10 -29 -19 -41 -19 -11 0
-46 -13 -79 -29 -32 -16 -91 -36 -129 -45 -83 -20 -81 -19 -124 -73 -18 -24
-36 -43 -41 -43 -8 0 -26 106 -21 124 4 15 -22 26 -65 26 -55 0 -123 -36 -218
-116 -94 -78 -184 -140 -192 -131 -11 10 218 238 261 259 22 12 60 28 85 37
64 23 433 212 505 259 161 104 334 265 646 601 200 216 274 280 384 332 66 32
121 37 164 14z m188 -487 c-3 -8 -6 -5 -6 6 -1 11 2 17 5 13 3 -3 4 -12 1 -19z
m-20 -120 c-3 -8 -6 -5 -6 6 -1 11 2 17 5 13 3 -3 4 -12 1 -19z m-10 -50 c-3
-8 -6 -5 -6 6 -1 11 2 17 5 13 3 -3 4 -12 1 -19z m-7308 -323 c-1 -50 -8 -82
-23 -110 l-21 -40 -3 47 c-3 40 7 110 22 168 3 8 5 20 5 25 1 6 6 3 11 -5 6
-8 10 -46 9 -85z m5321 -125 c-6 -11 -13 -20 -16 -20 -2 0 0 9 6 20 6 11 13
20 16 20 2 0 0 -9 -6 -20z m-826 -371 c36 -42 36 -110 1 -144 -52 -52 -120
-18 -136 69 -10 55 -7 67 29 89 42 26 76 21 106 -14z m-3139 -193 c74 -34 141
-100 177 -169 30 -61 30 -62 25 -187 -6 -145 -27 -233 -64 -272 -15 -16 -30
-28 -35 -28 -5 0 -38 -23 -74 -52 -56 -43 -69 -50 -83 -39 -9 6 -29 19 -44 29
-15 9 -39 41 -53 69 -15 29 -59 90 -100 137 -104 119 -213 187 -320 201 -48 7
-52 5 -73 -21 -21 -26 -22 -35 -16 -114 4 -47 9 -93 12 -104 3 -10 1 -16 -5
-13 -20 13 -45 133 -45 218 1 159 38 191 338 289 146 48 256 77 295 79 8 0 38
-10 65 -23z m2446 -177 c18 -18 20 -29 15 -65 -8 -61 -32 -104 -57 -104 -34 0
-69 47 -69 94 1 43 12 65 45 84 29 17 42 15 66 -9z m-898 4 c-7 -2 -21 -2 -30
0 -10 3 -4 5 12 5 17 0 24 -2 18 -5z m-128 -14 c-35 -11 -150 -21 -141 -12 3
3 34 9 68 13 89 10 108 10 73 -1z m4206 -48 c54 -54 40 -132 -61 -336 -255
-517 -846 -876 -1500 -910 l-105 -5 70 16 c68 15 82 22 135 64 14 11 65 28
115 39 50 10 113 28 141 39 29 10 76 25 105 32 30 7 59 16 64 20 6 4 39 20 75
36 36 15 83 40 105 54 22 15 67 41 101 59 179 94 487 406 609 616 16 27 37 58
47 69 10 11 18 24 18 28 0 5 10 22 21 38 23 30 32 107 17 148 -11 31 7 28 43
-7z m-6907 -131 c40 -15 71 -38 119 -88 118 -121 243 -294 267 -367 7 -22 16
-44 21 -50 5 -5 9 -18 9 -29 0 -12 18 -46 40 -76 22 -30 51 -71 64 -90 13 -19
51 -62 85 -95 34 -33 61 -63 61 -68 0 -11 -113 76 -185 143 -72 68 -117 95
-173 104 -31 4 -49 2 -66 -9 -45 -30 -18 -70 133 -199 96 -82 108 -91 227
-170 152 -100 158 -104 194 -119 131 -56 161 -67 215 -81 33 -9 92 -28 130
-42 64 -23 66 -24 25 -19 -61 9 -262 68 -355 105 -183 73 -339 163 -493 287
-131 105 -190 167 -277 290 -119 168 -186 326 -189 445 -1 72 17 111 65 135
30 16 19 17 83 -7z m2847 -30 c76 -41 49 -190 -35 -190 -87 0 -111 133 -32
181 36 22 41 23 67 9z m2072 -59 c40 -16 66 -51 87 -119 24 -78 27 -219 6
-319 -45 -210 -179 -463 -332 -623 -110 -114 -180 -164 -451 -318 -27 -14 -63
-25 -95 -26 -29 -2 -47 -1 -40 1 6 3 10 9 6 14 -3 5 2 12 10 15 23 9 19 31 -6
38 l-23 6 27 25 c15 14 32 25 38 25 6 0 18 4 28 9 9 5 55 27 101 51 134 67
245 158 346 285 22 28 45 55 52 60 6 6 35 46 63 90 29 44 65 98 80 120 15 22
38 60 50 85 13 25 28 49 35 55 7 5 29 60 49 122 28 88 36 129 38 195 1 82 -12
128 -38 128 -6 0 -33 -30 -61 -67 -56 -76 -217 -242 -267 -276 -102 -69 -178
-116 -231 -142 -33 -16 -62 -32 -65 -36 -3 -3 -23 -12 -45 -19 -22 -7 -44 -16
-49 -21 -6 -5 -20 -9 -32 -9 -12 0 -33 -9 -47 -20 -14 -11 -36 -20 -50 -20
-13 0 -30 -7 -37 -15 -7 -8 -17 -15 -22 -15 -5 0 -28 -9 -50 -20 -23 -11 -49
-20 -57 -20 -9 0 -61 -11 -116 -24 -128 -31 -217 -45 -230 -37 -5 3 -77 6
-160 6 -146 0 -202 9 -159 26 10 4 57 8 104 8 99 1 147 14 290 74 245 103 303
140 515 322 328 284 614 433 738 386z m-3738 -271 c3 -5 1 -10 -4 -10 -6 0
-11 5 -11 10 0 6 2 10 4 10 3 0 8 -4 11 -10z m-132 -29 c55 -13 107 -51 107
-78 0 -14 6 -23 15 -23 18 0 18 -2 3 -37 -17 -38 -26 -43 -78 -42 -91 0 -183
51 -202 111 -10 33 -9 41 7 58 20 22 80 26 148 11z m1124 -396 c56 -23 146
-104 140 -126 -3 -10 0 -20 7 -23 8 -3 7 -7 -2 -14 -11 -7 -7 -22 17 -72 17
-35 30 -65 28 -66 -1 -2 -22 13 -46 32 -24 18 -48 34 -53 34 -6 0 -34 -24 -62
-52 -29 -29 -72 -66 -96 -83 -25 -16 -49 -36 -53 -42 -4 -7 -17 -13 -27 -13
-11 0 -20 -4 -20 -9 0 -5 -12 -14 -28 -20 -15 -6 -44 -27 -66 -47 -51 -47 -45
-70 42 -155 87 -84 202 -161 300 -200 42 -17 91 -37 107 -44 87 -37 301 -50
513 -31 63 6 105 5 130 -2 20 -6 60 -18 87 -26 30 -9 36 -13 15 -9 -31 5 -33
4 -21 -11 7 -9 25 -17 40 -17 14 -1 -12 -8 -59 -16 -124 -21 -401 -21 -525 0
-180 31 -278 63 -424 137 -180 91 -252 162 -322 315 -57 127 -61 268 -10 387
33 78 116 156 189 178 46 14 160 11 199 -5z m3053 -475 c0 -36 -26 -74 -94
-137 -78 -74 -200 -142 -339 -191 -94 -33 -113 -36 -242 -39 -105 -3 -151 -1
-185 11 l-45 14 80 0 c121 1 236 27 342 77 50 25 106 59 125 76 18 17 47 37
63 46 33 17 187 122 195 133 7 9 61 28 83 29 11 1 17 -6 17 -19z m-1090 -271
c0 -5 -15 -16 -34 -24 -19 -8 -55 -28 -80 -45 -66 -45 -336 -132 -401 -129
-11 0 7 7 40 15 75 18 152 45 230 79 33 15 76 34 95 42 19 9 42 22 51 29 12
11 66 35 97 43 1 1 2 -4 2 -10z m-1229 -101 c35 -12 133 -78 126 -84 -7 -7
-181 73 -185 84 -5 15 16 15 59 0z m429 -80 c22 -13 40 -26 40 -30 0 -5 -26
-8 -57 -8 -42 0 -54 3 -43 10 13 9 12 13 -5 28 -11 10 -21 23 -22 30 -3 14 29
3 87 -30z"/>
<path d="M7556 8469 c-15 -12 -38 -19 -54 -18 -32 3 -102 -19 -102 -32 0 -5
-3 -8 -7 -7 -13 3 -136 -63 -168 -91 -30 -25 -61 -43 -137 -76 -21 -9 -38 -20
-38 -26 0 -6 -5 -7 -10 -4 -11 7 -87 -49 -132 -98 -14 -16 -30 -29 -34 -30 -5
-1 -9 -9 -9 -18 -2 -20 -43 -79 -56 -79 -5 0 -9 -5 -9 -11 0 -5 17 2 38 17
l37 27 -34 -31 c-18 -18 -37 -29 -42 -26 -5 3 -9 0 -9 -6 0 -6 -5 -8 -11 -5
-10 7 -87 -47 -102 -72 -4 -7 -14 -13 -21 -13 -8 0 -17 -12 -20 -26 -4 -15
-28 -45 -54 -67 -143 -124 -218 -236 -257 -384 -22 -80 -11 -268 14 -260 9 3
68 19 131 36 228 62 298 91 406 167 34 25 79 63 99 86 58 64 225 325 312 488
22 41 54 100 71 130 17 30 47 98 66 150 53 145 62 163 116 234 28 36 49 66 47
66 -3 0 -16 -9 -31 -21z"/>
<path d="M7710 8056 c0 -2 9 -6 20 -9 11 -3 18 -1 14 4 -5 9 -34 13 -34 5z"/>
<path d="M4480 7940 c-8 -5 -12 -12 -9 -15 4 -3 12 1 19 10 14 17 11 19 -10 5z"/>
<path d="M4434 7904 c-18 -14 -18 -15 4 -4 12 6 22 13 22 15 0 8 -5 6 -26 -11z"/>
<path d="M3322 7845 c0 -16 2 -22 5 -12 2 9 2 23 0 30 -3 6 -5 -1 -5 -18z"/>
<path d="M4939 7221 c-41 -41 -40 -98 4 -182 50 -97 112 -130 161 -87 70 60
42 224 -48 279 -45 27 -82 24 -117 -10z m86 -21 c3 -6 -4 -10 -17 -10 -13 0
-29 -5 -36 -12 -15 -15 -24 -6 -16 16 7 18 59 23 69 6z"/>
<path d="M5624 7243 c-12 -2 -32 -15 -45 -29 -20 -22 -24 -36 -24 -92 1 -126
68 -198 149 -160 36 16 56 51 63 108 13 109 -54 189 -143 173z m54 -46 c9 -10
1 -15 -34 -23 -32 -7 -44 -7 -44 1 0 31 57 48 78 22z"/>
<path d="M2985 7210 c-9 -16 -13 -30 -11 -30 3 0 12 14 21 30 9 17 13 30 11
30 -3 0 -12 -13 -21 -30z"/>
<path d="M2940 7130 c-11 -22 -18 -40 -15 -40 2 0 14 18 25 40 11 22 18 40 15
40 -2 0 -14 -18 -25 -40z"/>
<path d="M2847 6948 c-17 -35 -33 -96 -24 -88 9 8 48 112 44 117 -3 2 -11 -11
-20 -29z"/>
<path d="M6395 6955 c-60 -29 -85 -57 -85 -95 0 -33 35 -60 77 -60 68 1 163
69 163 118 0 63 -68 80 -155 37z m90 -4 c-16 -15 -147 -62 -139 -50 9 15 105
59 129 59 12 0 15 -3 10 -9z"/>
<path d="M4413 6923 c-12 -2 -34 -18 -49 -36 -22 -27 -25 -38 -22 -79 7 -64
51 -133 112 -175 150 -103 272 60 155 209 -51 64 -128 96 -196 81z m109 -73
l33 -30 -37 15 c-45 18 -90 19 -106 3 -9 -9 -12 -9 -12 3 0 48 74 53 122 9z"/>
<path d="M3713 6680 c-32 -13 -46 -47 -41 -100 8 -80 73 -145 171 -172 125
-33 171 98 74 209 -53 61 -142 88 -204 63z m103 -42 c11 -11 3 -13 -41 -14
-52 -1 -68 10 -47 30 10 11 73 -1 88 -16z"/>
<path d="M6685 6660 c-56 -13 -110 -44 -156 -91 -112 -115 -72 -233 72 -216
82 10 174 75 198 140 40 105 -18 190 -114 167z m33 -43 c9 -10 -5 -19 -63 -40
-40 -15 -88 -41 -104 -56 -37 -35 -41 -24 -6 18 22 25 133 91 155 91 4 0 12
-6 18 -13z"/>
<path d="M5565 6648 c-69 -37 -115 -113 -122 -199 -7 -68 8 -99 56 -119 25
-10 37 -10 62 0 72 30 139 139 139 226 0 78 -72 127 -135 92z m58 -40 c20 -10
18 -12 -25 -25 -25 -7 -60 -26 -77 -42 -36 -34 -39 -31 -10 15 36 59 70 75
112 52z"/>
<path d="M6031 6574 c-13 -9 -30 -32 -38 -51 -12 -31 -12 -38 2 -59 25 -39 62
-48 112 -29 24 9 48 25 53 35 42 78 -55 155 -129 104z"/>
<path d="M4837 6380 c-78 -62 -15 -261 100 -312 65 -29 101 -17 131 42 18 35
21 54 16 85 -23 143 -165 249 -247 185z m88 -32 l26 -23 -50 0 c-54 0 -60 5
-35 29 20 21 28 20 59 -6z"/>
<path d="M4160 6282 c-13 -10 -23 -33 -27 -58 -10 -80 58 -171 154 -204 26 -9
38 -8 66 5 126 60 28 275 -125 275 -29 0 -54 -7 -68 -18z m111 -28 c39 -19 34
-25 -12 -15 -19 4 -45 4 -58 -1 -29 -10 -38 -4 -21 17 16 19 53 19 91 -1z"/>
<path d="M3241 6124 c-107 -90 28 -287 198 -288 49 0 56 3 87 37 56 61 43 140
-36 210 -55 50 -96 67 -164 67 -44 0 -60 -5 -85 -26z m143 -28 c49 -20 55 -37
9 -24 -21 6 -62 8 -90 5 -50 -5 -52 -4 -43 14 13 23 74 26 124 5z"/>
<path d="M6063 6074 c-52 -19 -135 -92 -157 -138 -24 -51 -20 -83 13 -117 26
-26 36 -29 93 -29 127 1 228 83 231 189 3 73 -24 105 -89 108 -27 1 -68 -5
-91 -13z m97 -34 c0 -5 -19 -14 -42 -21 -57 -15 -137 -58 -149 -81 -5 -10 -15
-18 -21 -18 -12 0 17 48 41 68 51 42 171 79 171 52z"/>
<path d="M6878 6046 c-52 -14 -130 -73 -159 -120 -63 -103 35 -182 174 -142
136 39 198 209 96 262 -33 17 -49 17 -111 0z m67 -35 c3 -5 -19 -16 -48 -25
-29 -9 -72 -29 -95 -46 -50 -36 -55 -27 -9 18 50 48 136 78 152 53z"/>
<path d="M5477 5843 c-21 -24 -30 -64 -18 -83 16 -24 82 -16 108 15 28 32 29
39 1 65 -27 25 -70 26 -91 3z"/>
<path d="M3860 5752 c-119 -59 -11 -257 152 -278 52 -6 103 21 119 64 24 62
-43 165 -136 208 -60 28 -89 30 -135 6z m96 -38 c60 -28 61 -43 2 -27 -29 8
-65 12 -80 10 -23 -3 -25 -1 -17 15 12 22 50 23 95 2z"/>
<path d="M4979 5712 c-86 -56 -132 -120 -153 -214 -14 -62 90 -90 171 -45 107
57 168 224 100 272 -32 22 -68 18 -118 -13z m64 -17 c1 -6 -13 -19 -31 -30
-18 -11 -56 -37 -83 -58 -55 -42 -53 -23 3 29 73 67 107 85 111 59z"/>
<path d="M2940 5670 c-72 -72 62 -176 160 -125 34 18 47 56 31 91 -23 51 -151
74 -191 34z m70 -15 c11 -13 8 -13 -21 -3 -44 15 -48 18 -17 18 14 0 31 -7 38
-15z"/>
<path d="M6208 5632 c-52 -31 -75 -114 -40 -144 31 -28 59 -30 106 -9 74 32
100 111 50 150 -32 25 -79 27 -116 3z m38 -27 c-22 -16 -57 -21 -40 -6 7 8 29
15 54 20 3 0 -4 -6 -14 -14z"/>
<path d="M5687 5489 c-55 -13 -89 -33 -141 -84 -110 -107 -99 -211 24 -223 93
-9 185 40 225 119 43 83 27 166 -36 188 -18 6 -32 11 -33 10 -1 -1 -18 -5 -39
-10z m51 -59 c3 -8 1 -12 -3 -8 -10 10 -92 -23 -139 -55 -21 -14 -47 -38 -57
-54 -12 -17 -19 -22 -19 -12 0 33 61 97 125 132 36 20 87 18 93 -3z"/>
<path d="M6649 5365 c-95 -35 -167 -105 -176 -172 -4 -32 -1 -43 22 -65 32
-32 74 -42 153 -36 114 9 192 76 192 167 0 98 -85 145 -191 106z m114 -44 c4
-4 -5 -6 -21 -3 -32 4 -172 -49 -193 -74 -6 -8 -16 -14 -22 -14 -6 0 0 12 14
26 24 26 83 60 129 75 27 9 80 3 93 -10z"/>
<path d="M3290 5331 c-36 -10 -70 -66 -70 -115 1 -83 58 -162 139 -191 56 -20
91 -19 121 2 32 22 38 30 50 76 15 52 -2 108 -48 159 -58 64 -124 88 -192 69z
m73 -44 c18 -8 39 -22 47 -32 14 -17 13 -18 -5 -11 -62 25 -87 27 -111 11 -23
-15 -24 -14 -24 4 0 20 24 40 48 41 7 0 27 -6 45 -13z"/>
<path d="M4164 5190 c-63 -31 -94 -69 -94 -115 0 -38 15 -60 49 -75 50 -20 93
-6 145 50 73 78 87 132 42 162 -24 16 -85 7 -142 -22z m91 -9 c-8 -13 -102
-44 -118 -38 -16 6 71 46 101 47 13 0 21 -4 17 -9z"/>
<path d="M2740 5122 c-31 -25 -37 -88 -11 -130 44 -69 140 -94 195 -51 21 17
26 29 26 66 0 42 -4 51 -45 90 -41 39 -50 43 -94 43 -32 0 -56 -6 -71 -18z
m108 -32 c45 -27 40 -32 -9 -7 -32 16 -45 18 -65 9 -19 -10 -24 -9 -24 3 0 22
58 19 98 -5z"/>
<path d="M4865 4996 c-149 -69 -173 -221 -41 -257 79 -21 190 10 234 65 10 14
25 45 32 69 23 85 -30 147 -127 147 -29 0 -68 -9 -98 -24z m130 -26 c4 -6 -6
-10 -23 -10 -41 0 -109 -26 -149 -56 -22 -17 -33 -21 -33 -11 0 19 38 53 80
71 40 17 116 21 125 6z"/>
<path d="M5887 4799 c-20 -5 -55 -18 -76 -29 -74 -37 -104 -156 -54 -212 58
-65 202 -64 277 2 44 39 60 79 53 136 -10 90 -87 130 -200 103z m98 -52 c16
-12 9 -15 -54 -21 -40 -3 -86 -13 -103 -22 -33 -17 -42 -15 -33 9 16 40 148
64 190 34z"/>
<path d="M6362 4737 c-12 -13 -25 -37 -28 -55 -5 -27 -1 -37 28 -66 59 -59
162 -56 203 7 15 23 15 29 1 61 -28 68 -158 102 -204 53z m108 -18 c11 -7 1
-8 -35 -3 -27 4 -52 8 -54 10 -10 9 76 3 89 -7z"/>
<path d="M3894 4681 c-141 -64 -213 -265 -114 -316 139 -72 329 142 255 286
-26 50 -74 60 -141 30z m72 -60 c-4 -6 -15 -11 -26 -11 -10 0 -42 -16 -71 -35
-71 -49 -69 -47 -69 -36 0 20 61 79 102 100 36 18 45 19 56 7 8 -8 11 -19 8
-25z"/>
<path d="M3036 4580 c-110 -33 -131 -187 -37 -275 29 -27 39 -30 96 -30 49 0
70 5 91 21 52 38 69 71 69 132 0 70 -21 102 -89 137 -52 26 -81 29 -130 15z
m97 -57 l32 -17 -68 -7 c-38 -4 -75 -10 -83 -13 -19 -7 -18 13 3 36 21 23 74
23 116 1z"/>
<path d="M4523 4580 c-50 -20 -56 -80 -12 -121 35 -33 66 -36 110 -14 51 27
63 82 24 120 -25 26 -78 33 -122 15z"/>
<path d="M5106 4345 c-22 -8 -56 -30 -75 -50 -33 -33 -36 -40 -36 -94 0 -49 4
-64 25 -86 34 -38 80 -55 143 -55 94 0 167 70 167 161 0 63 -39 111 -104 128
-56 14 -72 13 -120 -4z m112 -51 c12 -8 22 -18 22 -22 0 -4 -41 -7 -90 -8 -50
-1 -90 2 -90 7 0 18 48 39 90 39 25 0 56 -7 68 -16z"/>
<path d="M5797 4232 c-22 -24 -21 -50 4 -116 21 -59 58 -96 93 -96 30 0 83 35
91 59 18 58 -73 171 -138 171 -20 0 -41 -7 -50 -18z"/>
<path d="M4388 4056 c-84 -30 -178 -137 -178 -202 0 -46 40 -90 88 -97 81 -13
171 38 222 125 25 44 30 61 26 98 -8 79 -68 108 -158 76z m79 -43 c2 -6 -13
-17 -34 -23 -21 -7 -67 -28 -103 -47 l-65 -35 40 42 c61 64 151 99 162 63z"/>
<path d="M3413 3994 c-48 -18 -127 -84 -148 -125 -57 -109 41 -194 163 -143
51 21 100 70 123 122 27 63 25 98 -10 133 -33 33 -63 36 -128 13z m61 -32 c3
-5 -18 -20 -45 -33 -28 -13 -65 -34 -82 -46 -41 -30 -48 -20 -11 18 48 51 124
84 138 61z"/>
<path d="M5262 3898 c-33 -33 14 -128 64 -128 44 0 61 83 24 120 -22 22 -69
27 -88 8z"/>
<path d="M4012 3600 c-55 -51 -26 -120 51 -120 29 0 45 7 68 29 35 36 36 54 4
86 -31 32 -91 34 -123 5z"/>
<path d="M4198 3263 c6 -2 18 -2 25 0 6 3 1 5 -13 5 -14 0 -19 -2 -12 -5z"/>
<path d="M3050 3336 c-111 -42 -249 -100 -246 -103 4 -4 62 2 251 24 30 3 47
0 66 -16 34 -26 39 -57 24 -134 -7 -34 -15 -89 -19 -122 -5 -54 -4 -58 9 -41
23 31 51 112 76 224 26 114 24 122 -31 160 -37 25 -78 27 -130 8z"/>
<path d="M5255 749 c-132 -3 -343 -10 -470 -13 -210 -6 -276 -10 -520 -32 -44
-4 -89 -8 -100 -9 -82 -6 -164 -19 -247 -38 -75 -17 -98 -26 -98 -38 0 -10 11
-19 28 -22 15 -3 45 -10 67 -16 22 -5 101 -17 175 -25 145 -17 161 -18 440
-42 102 -9 201 -18 220 -21 19 -3 337 -6 705 -8 653 -2 967 4 1385 25 113 6
302 15 420 20 118 6 285 17 370 25 85 8 211 19 280 24 178 14 250 29 250 50 0
23 -95 37 -339 51 -95 6 -177 12 -181 15 -4 2 -99 7 -211 10 -112 3 -244 7
-294 10 -49 3 -223 10 -385 15 -162 6 -353 12 -425 15 -250 9 -832 11 -1070 4z"/>
<path d="M8245 640 c-4 -6 7 -10 27 -10 25 0 29 3 18 10 -19 13 -37 13 -45 0z"/>
</g>
</svg>
